<svg viewBox="0 0 200 200" xmlns="http://www.w3.org/2000/svg">
  <defs>
    <linearGradient id="bg10" x1="0%" y1="0%" x2="100%" y2="100%">
      <stop offset="0%" style="stop-color:#0c0c0c"/>
      <stop offset="100%" style="stop-color:#1a1a2e"/>
    </linearGradient>
  </defs>
  <circle cx="100" cy="100" r="100" fill="url(#bg10)"/>
  <g stroke="#00d4ff" stroke-width="1" opacity="0.6">
    <line x1="20" y1="40" x2="180" y2="40"/>
    <line x1="20" y1="80" x2="180" y2="80"/>
    <line x1="20" y1="120" x2="180" y2="120"/>
    <line x1="20" y1="160" x2="180" y2="160"/>
    <line x1="40" y1="20" x2="40" y2="180"/>
    <line x1="80" y1="20" x2="80" y2="180"/>
    <line x1="120" y1="20" x2="120" y2="180"/>
    <line x1="160" y1="20" x2="160" y2="180"/>
  </g>
  <circle cx="80" cy="80" r="6" fill="#00d4ff"/>
  <circle cx="120" cy="80" r="6" fill="#ff006e"/>
  <circle cx="100" cy="120" r="6" fill="#00d4ff"/>
  <line x1="80" y1="80" x2="120" y2="80" stroke="#fff" stroke-width="2"/>
  <line x1="80" y1="80" x2="100" y2="120" stroke="#fff" stroke-width="2"/>
  <line x1="120" y1="80" x2="100" y2="120" stroke="#fff" stroke-width="2"/>
</svg>

