<svg viewBox="0 0 200 200" xmlns="http://www.w3.org/2000/svg">
  <defs>
    <linearGradient id="bg15" x1="0%" y1="0%" x2="100%" y2="100%">
      <stop offset="0%" style="stop-color:#bf360c"/>
      <stop offset="100%" style="stop-color:#8d2c0a"/>
    </linearGradient>
  </defs>
  <circle cx="100" cy="100" r="100" fill="url(#bg15)"/>
  <ellipse cx="100" cy="110" rx="55" ry="45" fill="#d4a574"/>
  <path d="M50 90 Q40 60 60 50 Q80 40 100 45 Q120 40 140 50 Q160 60 150 90" fill="#c4956a"/>
  <path d="M55 85 Q45 50 75 45 L65 75" fill="#8b6914"/>
  <path d="M145 85 Q155 50 125 45 L135 75" fill="#8b6914"/>
  <circle cx="75" cy="95" r="12" fill="#1a1a1a"/>
  <circle cx="125" cy="95" r="12" fill="#1a1a1a"/>
  <circle cx="78" cy="92" r="5" fill="#fff"/>
  <circle cx="128" cy="92" r="5" fill="#fff"/>
  <ellipse cx="100" cy="125" rx="15" ry="10" fill="#1a1a1a"/>
  <path d="M85 125 L100 140 L115 125" fill="#c4956a"/>
</svg>


