<svg viewBox="0 0 200 200" xmlns="http://www.w3.org/2000/svg">
  <defs>
    <linearGradient id="bg18" x1="0%" y1="0%" x2="100%" y2="100%">
      <stop offset="0%" style="stop-color:#e65100"/>
      <stop offset="100%" style="stop-color:#bf360c"/>
    </linearGradient>
  </defs>
  <circle cx="100" cy="100" r="100" fill="url(#bg18)"/>
  <ellipse cx="100" cy="105" rx="55" ry="50" fill="#ff9800"/>
  <path d="M45 90 Q35 60 55 45 L70 80" fill="#1a1a1a"/>
  <path d="M155 90 Q165 60 145 45 L130 80" fill="#1a1a1a"/>
  <path d="M50 100 Q60 85 75 95" fill="none" stroke="#1a1a1a" stroke-width="8"/>
  <path d="M150 100 Q140 85 125 95" fill="none" stroke="#1a1a1a" stroke-width="8"/>
  <ellipse cx="100" cy="85" rx="35" ry="25" fill="#fff"/>
  <circle cx="85" cy="85" r="10" fill="#1a1a1a"/>
  <circle cx="115" cy="85" r="10" fill="#1a1a1a"/>
  <circle cx="87" cy="83" r="4" fill="#fff"/>
  <circle cx="117" cy="83" r="4" fill="#fff"/>
  <ellipse cx="100" cy="120" rx="8" ry="5" fill="#1a1a1a"/>
  <path d="M75 135 Q100 155 125 135" fill="none" stroke="#1a1a1a" stroke-width="4"/>
</svg>

